<?xml version="1.0" encoding="UTF-8"?>
<!DOCTYPE svg PUBLIC "-//W3C//DTD SVG 1.1//EN" "http://www.w3.org/Graphics/SVG/1.1/DTD/svg11.dtd">
<svg xmlns="http://www.w3.org/2000/svg" version="1.1" width="2000px" height="600px" style="shape-rendering:geometricPrecision; text-rendering:geometricPrecision; image-rendering:optimizeQuality; fill-rule:evenodd; clip-rule:evenodd" xmlns:xlink="http://www.w3.org/1999/xlink">
<g><path style="opacity:1" fill="#f55e46" d="M -0.5,-0.5 C 147.167,-0.5 294.833,-0.5 442.5,-0.5C 442.169,7.19552 442.503,14.8622 443.5,22.5C 457.146,23.7054 470.812,23.5387 484.5,22C 485.481,14.5871 485.814,7.08713 485.5,-0.5C 848.833,-0.5 1212.17,-0.5 1575.5,-0.5C 1581.15,11.6561 1589.82,21.1561 1601.5,28C 1612,33.7475 1622.33,39.7475 1632.5,46C 1643.35,54.1927 1651.18,64.6927 1656,77.5C 1661.31,94.0749 1666.31,110.742 1671,127.5C 1678.4,148.143 1692.57,161.976 1713.5,169C 1721.31,171.563 1729.31,173.229 1737.5,174C 1751.19,174.723 1764.86,174.39 1778.5,173C 1804.3,167.84 1829.97,162.173 1855.5,156C 1870.93,154.905 1886.27,155.571 1901.5,158C 1912.22,160.795 1922.89,163.795 1933.5,167C 1959.91,171.144 1981.91,163.311 1999.5,143.5C 1999.5,295.5 1999.5,447.5 1999.5,599.5C 1901.17,599.5 1802.83,599.5 1704.5,599.5C 1699.04,592.702 1692.71,587.035 1685.5,582.5C 1684.5,582.667 1683.5,582.833 1682.5,583C 1676.94,588.73 1671.27,594.23 1665.5,599.5C 1632.17,599.5 1598.83,599.5 1565.5,599.5C 1565.67,594.821 1565.5,590.155 1565,585.5C 1551.22,584.454 1537.39,584.621 1523.5,586C 1522.53,590.401 1522.2,594.901 1522.5,599.5C 1135.17,599.5 747.833,599.5 360.5,599.5C 359.3,574.401 351.8,551.401 338,530.5C 326.542,512.114 313.042,495.281 297.5,480C 284.766,470.135 270.433,463.801 254.5,461C 238.51,459.898 222.51,459.564 206.5,460C 199.634,461.733 192.968,464.067 186.5,467C 169.833,477.667 153.167,488.333 136.5,499C 129.333,501.345 122,502.011 114.5,501C 99.8294,498.162 86.1627,492.829 73.5,485C 60.8769,475.379 48.5436,465.379 36.5,455C 24.7405,447.453 12.4072,440.953 -0.5,435.5C -0.5,290.167 -0.5,144.833 -0.5,-0.5 Z"/></g>
<g><path style="opacity:1" fill="#eb6953" d="M 442.5,-0.5 C 444.5,-0.5 446.5,-0.5 448.5,-0.5C 448.5,5.16667 448.5,10.8333 448.5,16.5C 458.514,16.4993 468.514,16.1659 478.5,15.5C 478.5,10.1667 478.5,4.83333 478.5,-0.5C 480.833,-0.5 483.167,-0.5 485.5,-0.5C 485.814,7.08713 485.481,14.5871 484.5,22C 470.812,23.5387 457.146,23.7054 443.5,22.5C 442.503,14.8622 442.169,7.19552 442.5,-0.5 Z"/></g>
<g><path style="opacity:1" fill="#f45e46" d="M 448.5,-0.5 C 458.5,-0.5 468.5,-0.5 478.5,-0.5C 478.5,4.83333 478.5,10.1667 478.5,15.5C 468.514,16.1659 458.514,16.4993 448.5,16.5C 448.5,10.8333 448.5,5.16667 448.5,-0.5 Z"/></g>
<g><path style="opacity:1" fill="#cf452d" d="M 1575.5,-0.5 C 1707.83,-0.5 1840.17,-0.5 1972.5,-0.5C 1982.25,12.0146 1991.25,25.0146 1999.5,38.5C 1999.5,73.5 1999.5,108.5 1999.5,143.5C 1981.91,163.311 1959.91,171.144 1933.5,167C 1922.89,163.795 1912.22,160.795 1901.5,158C 1886.27,155.571 1870.93,154.905 1855.5,156C 1829.97,162.173 1804.3,167.84 1778.5,173C 1764.86,174.39 1751.19,174.723 1737.5,174C 1729.31,173.229 1721.31,171.563 1713.5,169C 1692.57,161.976 1678.4,148.143 1671,127.5C 1666.31,110.742 1661.31,94.0749 1656,77.5C 1651.18,64.6927 1643.35,54.1927 1632.5,46C 1622.33,39.7475 1612,33.7475 1601.5,28C 1589.82,21.1561 1581.15,11.6561 1575.5,-0.5 Z"/></g>
<g><path style="opacity:1" fill="#f45d45" d="M 1972.5,-0.5 C 1981.5,-0.5 1990.5,-0.5 1999.5,-0.5C 1999.5,12.5 1999.5,25.5 1999.5,38.5C 1991.25,25.0146 1982.25,12.0146 1972.5,-0.5 Z"/></g>
<g><path style="opacity:1" fill="#eb6953" d="M 62.5,5.5 C 64.5273,5.33788 66.5273,5.50454 68.5,6C 76.3333,13.8333 84.1667,21.6667 92,29.5C 94.7703,32.2423 95.1036,35.2423 93,38.5C 82.1667,49.3333 71.3333,60.1667 60.5,71C 57.8963,73.2859 55.063,75.1193 52,76.5C 51.1667,76.3333 50.3333,76.1667 49.5,76C 41,67.5 32.5,59 24,50.5C 23.3333,48.5 23.3333,46.5 24,44.5C 37.0353,31.6318 49.8686,18.6318 62.5,5.5 Z"/></g>
<g><path style="opacity:1" fill="#f45e46" d="M 64.5,17.5 C 71.0896,22.4195 77.0896,28.0862 82.5,34.5C 72.8333,44.8333 62.8333,54.8333 52.5,64.5C 46.5271,59.1937 40.8604,53.5271 35.5,47.5C 45.188,37.4794 54.8547,27.4794 64.5,17.5 Z"/></g>
<g><path style="opacity:1" fill="#eb6953" d="M 359.5,19.5 C 360.552,19.3505 361.552,19.5172 362.5,20C 364.017,21.6851 365.684,23.1851 367.5,24.5C 369.228,22.7745 371.228,21.4411 373.5,20.5C 376.144,21.741 376.977,23.741 376,26.5C 370.583,28.6388 370.249,31.3055 375,34.5C 375.934,39.0833 374.1,40.5833 369.5,39C 368.696,37.2287 367.529,35.7287 366,34.5C 363.806,37.6948 360.973,38.6948 357.5,37.5C 356.572,36.2322 356.405,34.8989 357,33.5C 358.351,31.981 359.851,30.6477 361.5,29.5C 360.349,27.1909 359.016,25.0242 357.5,23C 357.978,21.6974 358.645,20.5307 359.5,19.5 Z"/></g>
<g><path style="opacity:1" fill="#eb6953" d="M 579.5,24.5 C 588.501,25.2499 597.501,26.0832 606.5,27C 607,27.5 607.5,28 608,28.5C 607.353,42.0983 605.853,55.5983 603.5,69C 594.086,69.2199 584.752,68.3866 575.5,66.5C 575.231,52.3754 576.564,38.3754 579.5,24.5 Z"/></g>
<g><path style="opacity:1" fill="#f45e46" d="M 584.5,31.5 C 590.224,31.9239 595.89,32.7572 601.5,34C 600.525,43.4552 599.525,52.9552 598.5,62.5C 592.855,61.8658 587.189,61.5324 581.5,61.5C 582.237,51.4651 583.237,41.4651 584.5,31.5 Z"/></g>
<g><path style="opacity:1" fill="#eb6953" d="M 221.5,36.5 C 222.873,36.3433 224.207,36.51 225.5,37C 230.752,41.746 235.418,46.9127 239.5,52.5C 234.901,58.7687 229.567,64.4354 223.5,69.5C 217.5,64.1667 211.833,58.5 206.5,52.5C 211.522,47.1463 216.522,41.813 221.5,36.5 Z"/></g>
<g><path style="opacity:1" fill="#eb6953" d="M 408.5,43.5 C 414.075,43.8995 419.575,44.5661 425,45.5C 424.904,50.8086 424.738,56.142 424.5,61.5C 418.788,61.687 413.121,61.3537 407.5,60.5C 407.375,54.7969 407.708,49.1302 408.5,43.5 Z"/></g>
<g><path style="opacity:1" fill="#eb6953" d="M 505.5,48.5 C 511.172,48.7599 516.839,49.0932 522.5,49.5C 522.365,55.181 522.032,60.8477 521.5,66.5C 515.867,66.5968 510.367,65.9301 505,64.5C 504.978,59.1822 505.145,53.8489 505.5,48.5 Z"/></g>
<g><path style="opacity:1" fill="#eb6953" d="M 122.5,67.5 C 124.792,67.2436 126.959,67.5769 129,68.5C 130.354,72.3628 130.854,76.3628 130.5,80.5C 134.182,80.3347 137.848,80.5014 141.5,81C 143.013,83.9156 142.68,86.5823 140.5,89C 137.183,89.4983 133.85,89.665 130.5,89.5C 130.665,92.8499 130.498,96.1832 130,99.5C 127,103.5 124,103.5 121,99.5C 120.502,96.1832 120.335,92.8499 120.5,89.5C 117.15,89.665 113.817,89.4983 110.5,89C 108.32,86.5823 107.987,83.9156 109.5,81C 113.152,80.5014 116.818,80.3347 120.5,80.5C 119.975,75.8602 120.642,71.5269 122.5,67.5 Z"/></g>
<g><path style="opacity:1" fill="#eb6953" d="M 324.5,77.5 C 326.199,77.3398 327.866,77.5065 329.5,78C 339.078,87.0744 348.078,96.5744 356.5,106.5C 343.742,120.761 330.408,134.594 316.5,148C 314.029,148.706 311.695,148.373 309.5,147C 300.213,138.554 291.88,129.387 284.5,119.5C 284.667,118.833 284.833,118.167 285,117.5C 298.369,104.299 311.535,90.9652 324.5,77.5 Z"/></g>
<g><path style="opacity:1" fill="#f45e46" d="M 326.5,89.5 C 333.09,94.4195 339.09,100.086 344.5,106.5C 334.801,117.2 324.468,127.2 313.5,136.5C 307.5,131.167 301.833,125.5 296.5,119.5C 306.827,109.839 316.827,99.8394 326.5,89.5 Z"/></g>
<g><path style="opacity:1" fill="#eb6953" d="M 408.5,100.5 C 418.124,100.725 427.624,101.725 437,103.5C 437.146,116.901 436.146,130.235 434,143.5C 433.5,144 433,144.5 432.5,145C 423.835,144.778 415.169,144.112 406.5,143C 406,142.5 405.5,142 405,141.5C 405.273,127.756 406.44,114.089 408.5,100.5 Z"/></g>
<g><path style="opacity:1" fill="#eb6953" d="M 551.5,101.5 C 553.199,101.34 554.866,101.506 556.5,102C 557.304,103.771 558.471,105.271 560,106.5C 562.347,103.144 565.347,102.144 569,103.5C 569.536,107.169 568.036,109.836 564.5,111.5C 565.833,113.5 567.167,115.5 568.5,117.5C 567.418,119.784 565.752,120.95 563.5,121C 561.641,119.442 560.141,117.609 559,115.5C 556.83,119.26 553.83,120.26 550,118.5C 549.333,117.167 549.333,115.833 550,114.5C 551.635,113.274 553.135,111.941 554.5,110.5C 551.413,108.033 550.413,105.033 551.5,101.5 Z"/></g>
<g><path style="opacity:1" fill="#f45e46" d="M 413.5,107.5 C 419.172,107.76 424.839,108.093 430.5,108.5C 429.928,118.507 429.261,128.507 428.5,138.5C 422.833,137.833 417.167,137.167 411.5,136.5C 412.314,126.844 412.98,117.177 413.5,107.5 Z"/></g>
<g><path style="opacity:1" fill="#eb6953" d="M 468.5,106.5 C 471.988,107.143 474.488,109.143 476,112.5C 478.17,108.74 481.17,107.74 485,109.5C 485.536,113.169 484.036,115.836 480.5,117.5C 481.48,118.981 482.647,120.315 484,121.5C 484.934,126.083 483.1,127.583 478.5,126C 477.696,124.229 476.529,122.729 475,121.5C 472.653,124.856 469.653,125.856 466,124.5C 465.333,123.167 465.333,121.833 466,120.5C 467.635,119.274 469.135,117.941 470.5,116.5C 469.035,114.401 467.701,112.234 466.5,110C 466.978,108.697 467.645,107.531 468.5,106.5 Z"/></g>
<g><path style="opacity:1" fill="#eb6953" d="M 222.5,138.5 C 224.792,138.244 226.959,138.577 229,139.5C 230.337,143.026 230.837,146.692 230.5,150.5C 234.584,150.043 238.417,150.71 242,152.5C 242.944,155.347 242.444,157.847 240.5,160C 237.183,160.498 233.85,160.665 230.5,160.5C 230.665,163.85 230.498,167.183 230,170.5C 227,173.167 224,173.167 221,170.5C 220.502,167.183 220.335,163.85 220.5,160.5C 217.15,160.665 213.817,160.498 210.5,160C 207.833,157 207.833,154 210.5,151C 213.817,150.502 217.15,150.335 220.5,150.5C 219.99,146.187 220.657,142.187 222.5,138.5 Z"/></g>
<g><path style="opacity:1" fill="#fffcfb" d="M 523.5,190.5 C 526.518,190.335 529.518,190.502 532.5,191C 551.203,195.874 569.87,200.874 588.5,206C 568.074,212.197 547.741,218.697 527.5,225.5C 507.407,219.302 487.407,212.802 467.5,206C 486.293,201.014 504.96,195.847 523.5,190.5 Z"/></g>
<g><path style="opacity:1" fill="#fff9f8" d="M 725.5,201.5 C 728.187,201.336 730.854,201.503 733.5,202C 735.644,209.19 732.978,211.857 725.5,210C 722.899,207.17 722.899,204.337 725.5,201.5 Z"/></g>
<g><path style="opacity:1" fill="#fff3f1" d="M 799.5,201.5 C 802.187,201.336 804.854,201.503 807.5,202C 810.25,205.012 809.917,207.679 806.5,210C 798.261,211.611 795.927,208.777 799.5,201.5 Z"/></g>
<g><path style="opacity:1" fill="#fff9f8" d="M 1210.5,201.5 C 1214.01,200.994 1217.17,201.66 1220,203.5C 1220.81,210.001 1217.98,212.168 1211.5,210C 1209.26,207.415 1208.93,204.582 1210.5,201.5 Z"/></g>
<g><path style="opacity:1" fill="#fffcfb" d="M 894.5,202.5 C 897.833,202.5 901.167,202.5 904.5,202.5C 904.5,216.5 904.5,230.5 904.5,244.5C 900.603,245.03 897.27,244.03 894.5,241.5C 885.669,248.009 879.502,246.009 876,235.5C 874.873,229.245 875.54,223.245 878,217.5C 881.66,213.633 886.16,212.466 891.5,214C 892.333,214.833 893.167,215.667 894,216.5C 894.499,211.845 894.666,207.179 894.5,202.5 Z"/></g>
<g><path style="opacity:1" fill="#fbb9af" d="M 894.5,202.5 C 897.962,201.518 901.629,201.185 905.5,201.5C 905.829,216.01 905.496,230.343 904.5,244.5C 904.5,230.5 904.5,216.5 904.5,202.5C 901.167,202.5 897.833,202.5 894.5,202.5 Z"/></g>
<g><path style="opacity:1" fill="#fffbfb" d="M 989.5,202.5 C 992.833,202.5 996.167,202.5 999.5,202.5C 999.334,207.511 999.501,212.511 1000,217.5C 1000.72,216.956 1001.22,216.289 1001.5,215.5C 1007.44,212.378 1012.94,213.044 1018,217.5C 1019.44,226.392 1019.94,235.392 1019.5,244.5C 1015.83,244.5 1012.17,244.5 1008.5,244.5C 1008.67,237.159 1008.5,229.826 1008,222.5C 1004.91,220.78 1002.58,221.447 1001,224.5C 1000.5,231.158 1000.33,237.825 1000.5,244.5C 996.833,244.5 993.167,244.5 989.5,244.5C 989.5,230.5 989.5,216.5 989.5,202.5 Z"/></g>
<g><path style="opacity:1" fill="#fbb5aa" d="M 989.5,202.5 C 992.962,201.518 996.629,201.185 1000.5,201.5C 1000.18,206.363 1000.51,211.03 1001.5,215.5C 1001.22,216.289 1000.72,216.956 1000,217.5C 999.501,212.511 999.334,207.511 999.5,202.5C 996.167,202.5 992.833,202.5 989.5,202.5 Z"/></g>
<g><path style="opacity:1" fill="#fde6e2" d="M 1072.5,244.5 C 1072.5,230.5 1072.5,216.5 1072.5,202.5C 1069.5,202.5 1066.5,202.5 1063.5,202.5C 1063.5,216.5 1063.5,230.5 1063.5,244.5C 1062.5,230.343 1062.17,216.01 1062.5,201.5C 1066.17,201.5 1069.83,201.5 1073.5,201.5C 1073.83,216.01 1073.5,230.343 1072.5,244.5 Z"/></g>
<g><path style="opacity:1" fill="#fefffe" d="M 1072.5,244.5 C 1069.5,244.5 1066.5,244.5 1063.5,244.5C 1063.5,230.5 1063.5,216.5 1063.5,202.5C 1066.5,202.5 1069.5,202.5 1072.5,202.5C 1072.5,216.5 1072.5,230.5 1072.5,244.5 Z"/></g>
<g><path style="opacity:1" fill="#fbb7ac" d="M 1182.5,202.5 C 1179.17,202.5 1175.83,202.5 1172.5,202.5C 1172.5,216.5 1172.5,230.5 1172.5,244.5C 1171.5,230.343 1171.17,216.01 1171.5,201.5C 1175.37,201.185 1179.04,201.518 1182.5,202.5 Z"/></g>
<g><path style="opacity:1" fill="#fffcfc" d="M 1182.5,202.5 C 1182.33,207.179 1182.5,211.845 1183,216.5C 1183.9,215.299 1185.07,214.465 1186.5,214C 1193.74,211.701 1198.9,213.868 1202,220.5C 1202.5,228.493 1202.67,236.493 1202.5,244.5C 1198.83,244.5 1195.17,244.5 1191.5,244.5C 1191.67,237.492 1191.5,230.492 1191,223.5C 1187.51,220.538 1184.85,221.205 1183,225.5C 1182.5,231.825 1182.33,238.158 1182.5,244.5C 1179.17,244.5 1175.83,244.5 1172.5,244.5C 1172.5,230.5 1172.5,216.5 1172.5,202.5C 1175.83,202.5 1179.17,202.5 1182.5,202.5 Z"/></g>
<g><path style="opacity:1" fill="#fefffe" d="M 1454.5,202.5 C 1457.83,202.5 1461.17,202.5 1464.5,202.5C 1464.5,216.5 1464.5,230.5 1464.5,244.5C 1461.17,244.5 1457.83,244.5 1454.5,244.5C 1454.5,230.5 1454.5,216.5 1454.5,202.5 Z"/></g>
<g><path style="opacity:1" fill="#fbc1b9" d="M 1454.5,202.5 C 1457.96,201.518 1461.63,201.185 1465.5,201.5C 1465.83,216.01 1465.5,230.343 1464.5,244.5C 1464.5,230.5 1464.5,216.5 1464.5,202.5C 1461.17,202.5 1457.83,202.5 1454.5,202.5 Z"/></g>
<g><path style="opacity:1" fill="#fefffe" d="M 1472.5,202.5 C 1475.83,202.5 1479.17,202.5 1482.5,202.5C 1482.5,216.5 1482.5,230.5 1482.5,244.5C 1479.17,244.5 1475.83,244.5 1472.5,244.5C 1472.5,230.5 1472.5,216.5 1472.5,202.5 Z"/></g>
<g><path style="opacity:1" fill="#fbc1b9" d="M 1472.5,202.5 C 1475.96,201.518 1479.63,201.185 1483.5,201.5C 1483.83,216.01 1483.5,230.343 1482.5,244.5C 1482.5,230.5 1482.5,216.5 1482.5,202.5C 1479.17,202.5 1475.83,202.5 1472.5,202.5 Z"/></g>
<g><path style="opacity:1" fill="#fefbfb" d="M 691.5,204.5 C 695.167,204.5 698.833,204.5 702.5,204.5C 702.5,214.833 702.5,225.167 702.5,235.5C 707.5,235.5 712.5,235.5 717.5,235.5C 717.5,238.5 717.5,241.5 717.5,244.5C 708.833,244.5 700.167,244.5 691.5,244.5C 691.5,231.167 691.5,217.833 691.5,204.5 Z"/></g>
<g><path style="opacity:1" fill="#fffafa" d="M 933.5,204.5 C 938.179,204.334 942.845,204.501 947.5,205C 954.361,205.759 955.361,208.759 950.5,214C 947.333,213.922 944.166,213.422 941,212.5C 938.837,212.495 937.337,213.495 936.5,215.5C 941.213,218.611 946.047,221.611 951,224.5C 955.906,233.466 953.74,239.966 944.5,244C 939.167,244.667 933.833,244.667 928.5,244C 927.584,243.626 926.75,243.126 926,242.5C 925.502,239.518 925.335,236.518 925.5,233.5C 929.23,234.797 933.064,235.797 937,236.5C 941.543,236.868 943.043,235.035 941.5,231C 935.44,229.066 930.606,225.566 927,220.5C 924.729,213.174 926.895,207.841 933.5,204.5 Z"/></g>
<g><path style="opacity:1" fill="#fffbfb" d="M 1292.5,204.5 C 1296.17,204.5 1299.83,204.5 1303.5,204.5C 1302.99,213.158 1302.66,221.825 1302.5,230.5C 1299.5,230.5 1296.5,230.5 1293.5,230.5C 1292.7,221.858 1292.37,213.191 1292.5,204.5 Z"/></g>
<g><path style="opacity:1" fill="#fffaf9" d="M 1324.5,204.5 C 1332.5,204.5 1340.5,204.5 1348.5,204.5C 1348.5,207.5 1348.5,210.5 1348.5,213.5C 1344.17,213.5 1339.83,213.5 1335.5,213.5C 1335.5,215.5 1335.5,217.5 1335.5,219.5C 1339.5,219.5 1343.5,219.5 1347.5,219.5C 1347.5,222.5 1347.5,225.5 1347.5,228.5C 1343.5,228.5 1339.5,228.5 1335.5,228.5C 1335.5,230.833 1335.5,233.167 1335.5,235.5C 1339.83,235.5 1344.17,235.5 1348.5,235.5C 1348.5,238.5 1348.5,241.5 1348.5,244.5C 1340.5,244.5 1332.5,244.5 1324.5,244.5C 1324.5,231.167 1324.5,217.833 1324.5,204.5 Z"/></g>
<g><path style="opacity:1" fill="#fff9f8" d="M 820.5,207.5 C 823.167,207.5 825.833,207.5 828.5,207.5C 828.5,209.5 828.5,211.5 828.5,213.5C 830.833,213.5 833.167,213.5 835.5,213.5C 835.5,216.167 835.5,218.833 835.5,221.5C 833.167,221.5 830.833,221.5 828.5,221.5C 828.334,226.179 828.501,230.845 829,235.5C 831.432,236.45 833.932,236.45 836.5,235.5C 836.813,238.247 836.48,240.914 835.5,243.5C 830.887,245.771 826.22,245.938 821.5,244C 819.951,242.786 818.785,241.286 818,239.5C 817.501,233.509 817.334,227.509 817.5,221.5C 816.167,221.5 814.833,221.5 813.5,221.5C 813.215,219.712 813.548,218.045 814.5,216.5C 818.242,214.689 820.242,211.689 820.5,207.5 Z"/></g>
<g><path style="opacity:1" fill="#fffafa" d="M 723.5,213.5 C 727.167,213.5 730.833,213.5 734.5,213.5C 734.5,223.833 734.5,234.167 734.5,244.5C 730.833,244.5 727.167,244.5 723.5,244.5C 723.5,234.167 723.5,223.833 723.5,213.5 Z"/></g>
<g><path style="opacity:1" fill="#fff9f8" d="M 741.5,213.5 C 745.607,212.85 749.107,213.85 752,216.5C 758.134,212.525 764.3,212.525 770.5,216.5C 775.864,213.149 781.531,212.649 787.5,215C 788.211,216.255 789.044,217.421 790,218.5C 790.5,227.16 790.666,235.827 790.5,244.5C 786.833,244.5 783.167,244.5 779.5,244.5C 779.666,237.159 779.5,229.826 779,222.5C 776.119,220.972 773.786,221.638 772,224.5C 771.5,231.158 771.334,237.825 771.5,244.5C 767.833,244.5 764.167,244.5 760.5,244.5C 760.666,237.159 760.5,229.826 760,222.5C 756.592,220.777 754.259,221.777 753,225.5C 752.5,231.825 752.334,238.158 752.5,244.5C 748.833,244.5 745.167,244.5 741.5,244.5C 741.5,234.167 741.5,223.833 741.5,213.5 Z"/></g>
<g><path style="opacity:1" fill="#fff8f7" d="M 797.5,213.5 C 801.167,213.5 804.833,213.5 808.5,213.5C 808.5,223.833 808.5,234.167 808.5,244.5C 804.833,244.5 801.167,244.5 797.5,244.5C 797.5,234.167 797.5,223.833 797.5,213.5 Z"/></g>
<g><path style="opacity:1" fill="#fffbfb" d="M 849.5,213.5 C 864.128,210.946 871.128,216.946 870.5,231.5C 864.167,231.5 857.833,231.5 851.5,231.5C 851.393,233.903 852.393,235.736 854.5,237C 859.331,237.778 863.997,237.278 868.5,235.5C 868.5,238.167 868.5,240.833 868.5,243.5C 862.195,244.487 855.862,244.653 849.5,244C 841.63,239.409 838.796,232.576 841,223.5C 842.289,218.721 845.123,215.388 849.5,213.5 Z"/></g>
<g><path style="opacity:1" fill="#fffaf9" d="M 967.5,213.5 C 973.203,213.375 978.87,213.708 984.5,214.5C 984.202,217.265 983.202,219.765 981.5,222C 978.189,221.785 974.856,221.785 971.5,222C 965.989,234.649 969.656,238.816 982.5,234.5C 983.783,237.372 983.783,240.205 982.5,243C 964.563,248.073 956.729,241.24 959,222.5C 960.688,218.315 963.521,215.315 967.5,213.5 Z"/></g>
<g><path style="opacity:1" fill="#fff8f7" d="M 1037.5,212.5 C 1051.86,212.873 1058.03,220.207 1056,234.5C 1050.97,244.844 1043.14,247.677 1032.5,243C 1025.45,236.863 1023.61,229.363 1027,220.5C 1029.54,216.49 1033.04,213.824 1037.5,212.5 Z"/></g>
<g><path style="opacity:1" fill="#fff9f8" d="M 1086.5,213.5 C 1091.51,213.334 1096.51,213.501 1101.5,214C 1105,214.833 1107.17,217 1108,220.5C 1108.5,228.493 1108.67,236.493 1108.5,244.5C 1104.17,245.268 1100.84,243.935 1098.5,240.5C 1092.31,247.008 1086.14,247.008 1080,240.5C 1077.93,234.013 1079.77,229.18 1085.5,226C 1089.47,225.058 1093.47,224.225 1097.5,223.5C 1096.59,221.257 1094.92,220.257 1092.5,220.5C 1089.82,221.175 1087.16,221.842 1084.5,222.5C 1084.41,220.323 1083.75,218.323 1082.5,216.5C 1083.62,215.141 1084.96,214.141 1086.5,213.5 Z"/></g>
<g><path style="opacity:1" fill="#fff9f8" d="M 1115.5,213.5 C 1118.5,213.5 1121.5,213.5 1124.5,213.5C 1124.31,215.103 1124.81,216.437 1126,217.5C 1129.04,214.034 1132.87,212.7 1137.5,213.5C 1137.74,216.579 1137.41,219.579 1136.5,222.5C 1133.89,223.318 1131.23,223.818 1128.5,224C 1127.87,224.75 1127.37,225.584 1127,226.5C 1126.5,232.491 1126.33,238.491 1126.5,244.5C 1122.83,244.5 1119.17,244.5 1115.5,244.5C 1115.5,234.167 1115.5,223.833 1115.5,213.5 Z"/></g>
<g><path style="opacity:1" fill="#fffafa" d="M 1147.5,213.5 C 1151.85,213.334 1156.18,213.501 1160.5,214C 1166.31,215.438 1166.81,218.271 1162,222.5C 1158.62,220.685 1155.12,220.351 1151.5,221.5C 1155.52,223.93 1159.69,226.264 1164,228.5C 1165.5,232.039 1165.84,235.705 1165,239.5C 1163.89,241.815 1162.06,243.315 1159.5,244C 1154.17,244.667 1148.83,244.667 1143.5,244C 1141.68,241.544 1141.01,238.711 1141.5,235.5C 1144.63,236.265 1147.8,236.932 1151,237.5C 1152.97,237.691 1154.47,237.024 1155.5,235.5C 1152.39,233.443 1149.06,231.61 1145.5,230C 1139.67,223.622 1140.34,218.122 1147.5,213.5 Z"/></g>
<g><path style="opacity:1" fill="#fffafa" d="M 1209.5,213.5 C 1213.17,213.5 1216.83,213.5 1220.5,213.5C 1220.5,223.833 1220.5,234.167 1220.5,244.5C 1216.83,244.5 1213.17,244.5 1209.5,244.5C 1209.5,234.167 1209.5,223.833 1209.5,213.5 Z"/></g>
<g><path style="opacity:1" fill="#fffcfc" d="M 1238.5,242.5 C 1237.5,246.732 1237.17,251.732 1237.5,257.5C 1234.17,257.5 1230.83,257.5 1227.5,257.5C 1227.5,242.833 1227.5,228.167 1227.5,213.5C 1230.57,213.183 1233.57,213.516 1236.5,214.5C 1237,215.5 1237.5,216.5 1238,217.5C 1241.31,213.673 1245.47,212.506 1250.5,214C 1255.67,217.156 1258.01,221.823 1257.5,228C 1258.01,242.359 1251.67,247.192 1238.5,242.5 Z"/></g>
<g><path style="opacity:1" fill="#fffbfa" d="M 1268.5,213.5 C 1275.06,212.919 1281.39,213.752 1287.5,216C 1286.44,218.406 1285.1,220.573 1283.5,222.5C 1280.28,220.627 1276.94,220.293 1273.5,221.5C 1278.36,223.854 1282.86,226.854 1287,230.5C 1288.86,236.581 1287.02,241.081 1281.5,244C 1275.83,244.667 1270.17,244.667 1264.5,244C 1263.56,241.281 1263.22,238.448 1263.5,235.5C 1266.63,236.265 1269.8,236.932 1273,237.5C 1274.97,237.691 1276.47,237.024 1277.5,235.5C 1272.64,233.146 1268.14,230.146 1264,226.5C 1262.38,220.923 1263.88,216.589 1268.5,213.5 Z"/></g>
<g><path style="opacity:1" fill="#fff9f8" d="M 1354.5,213.5 C 1358.72,212.914 1362.39,213.914 1365.5,216.5C 1370.46,213.094 1375.79,212.594 1381.5,215C 1383.04,216.579 1384.21,218.413 1385,220.5C 1385.5,228.493 1385.67,236.493 1385.5,244.5C 1381.83,244.5 1378.17,244.5 1374.5,244.5C 1374.67,237.492 1374.5,230.492 1374,223.5C 1370.51,220.538 1367.85,221.205 1366,225.5C 1365.5,231.825 1365.33,238.158 1365.5,244.5C 1361.83,244.5 1358.17,244.5 1354.5,244.5C 1354.5,234.167 1354.5,223.833 1354.5,213.5 Z"/></g>
<g><path style="opacity:1" fill="#fffafa" d="M 1408.5,213.5 C 1410.17,213.5 1411.83,213.5 1413.5,213.5C 1413.5,214.833 1413.5,216.167 1413.5,217.5C 1413.5,219.5 1413.5,221.5 1413.5,223.5C 1409.99,222.994 1406.83,223.66 1404,225.5C 1403.5,231.825 1403.33,238.158 1403.5,244.5C 1399.83,244.5 1396.17,244.5 1392.5,244.5C 1392.5,234.167 1392.5,223.833 1392.5,213.5C 1395.19,213.336 1397.85,213.503 1400.5,214C 1401.07,215.205 1401.74,216.372 1402.5,217.5C 1404.25,215.748 1406.25,214.415 1408.5,213.5 Z"/></g>
<g><path style="opacity:1" fill="#fffaf9" d="M 1425.5,213.5 C 1444.68,211.843 1451.52,220.176 1446,238.5C 1444.83,240.333 1443.33,241.833 1441.5,243C 1423.43,247.931 1415.6,241.098 1418,222.5C 1419.64,218.7 1422.14,215.7 1425.5,213.5 Z"/></g>
<g><path style="opacity:1" fill="#fbb6ab" d="M 1408.5,213.5 C 1410.26,212.539 1412.26,212.205 1414.5,212.5C 1414.78,214.415 1414.45,216.081 1413.5,217.5C 1413.5,216.167 1413.5,214.833 1413.5,213.5C 1411.83,213.5 1410.17,213.5 1408.5,213.5 Z"/></g>
<g><path style="opacity:1" fill="#fff3f1" d="M 593.5,215.5 C 594.496,230.658 594.83,245.991 594.5,261.5C 592.833,261.5 591.167,261.5 589.5,261.5C 589.333,247.496 589.5,233.496 590,219.5C 591.376,218.295 592.542,216.962 593.5,215.5 Z"/></g>
<g><path style="opacity:1" fill="#f5624a" d="M 860.5,224.5 C 857.302,225.036 854.635,224.369 852.5,222.5C 854.011,220.559 856.011,220.059 858.5,221C 859.823,221.816 860.489,222.983 860.5,224.5 Z"/></g>
<g><path style="opacity:1" fill="#f56149" d="M 1038.5,221.5 C 1041.04,221.104 1043.21,221.771 1045,223.5C 1045.98,227.9 1045.48,232.067 1043.5,236C 1041.56,236.743 1039.73,236.576 1038,235.5C 1035.87,230.632 1036.04,225.965 1038.5,221.5 Z"/></g>
<g><path style="opacity:1" fill="#f5634b" d="M 1240.5,221.5 C 1242.72,221.178 1244.56,221.845 1246,223.5C 1246.77,227.594 1246.43,231.594 1245,235.5C 1242.73,236.935 1240.73,236.602 1239,234.5C 1237.98,229.871 1238.48,225.538 1240.5,221.5 Z"/></g>
<g><path style="opacity:1" fill="#f5614a" d="M 1430.5,221.5 C 1433.55,220.855 1435.71,221.855 1437,224.5C 1437.85,228.536 1437.35,232.369 1435.5,236C 1432.97,236.896 1430.81,236.396 1429,234.5C 1427.98,229.871 1428.48,225.538 1430.5,221.5 Z"/></g>
<g><path style="opacity:1" fill="#fffefd" d="M 484.5,222.5 C 498.781,227.039 513.115,231.372 527.5,235.5C 542.17,231.165 556.837,226.832 571.5,222.5C 571.5,242.5 571.5,262.5 571.5,282.5C 542.86,287.495 514.193,287.661 485.5,283C 484.507,262.909 484.173,242.743 484.5,222.5 Z"/></g>
<g><path style="opacity:1" fill="#f5644d" d="M 888.5,221.5 C 893.35,221.519 895.683,224.019 895.5,229C 895.266,235.627 892.433,237.46 887,234.5C 885.978,229.871 886.478,225.538 888.5,221.5 Z"/></g>
<g><path style="opacity:1" fill="#f89686" d="M 852.5,222.5 C 854.635,224.369 857.302,225.036 860.5,224.5C 857.713,225.477 854.713,225.81 851.5,225.5C 851.263,224.209 851.596,223.209 852.5,222.5 Z"/></g>
<g><path style="opacity:1" fill="#f66750" d="M 1092.5,230.5 C 1094.17,230.5 1095.83,230.5 1097.5,230.5C 1098.33,235.501 1096.33,237.668 1091.5,237C 1090.14,234.586 1090.48,232.419 1092.5,230.5 Z"/></g>
<g><path style="opacity:1" fill="#fff5f3" d="M 1295.5,234.5 C 1303.82,234.987 1305.49,238.487 1300.5,245C 1293.44,246.271 1290.94,243.438 1293,236.5C 1293.99,235.934 1294.83,235.267 1295.5,234.5 Z"/></g>
<g><path style="opacity:1" fill="#fbb8ad" d="M 1238.5,242.5 C 1238.5,247.833 1238.5,253.167 1238.5,258.5C 1234.63,258.815 1230.96,258.482 1227.5,257.5C 1230.83,257.5 1234.17,257.5 1237.5,257.5C 1237.17,251.732 1237.5,246.732 1238.5,242.5 Z"/></g>
<g><path style="opacity:1" fill="#fff1ef" d="M 590.5,265.5 C 595.331,265.494 597.497,267.827 597,272.5C 593.492,276.436 590.159,276.436 587,272.5C 586.176,269.16 587.343,266.827 590.5,265.5 Z"/></g>
<g><path style="opacity:1" fill="#fffcfb" d="M 1065.5,322.5 C 1062.75,322.813 1060.09,322.48 1057.5,321.5C 1057,320.5 1056.5,319.5 1056,318.5C 1049.14,325.662 1043.14,324.995 1038,316.5C 1035.73,309.334 1036.06,302.334 1039,295.5C 1044.22,290.561 1049.72,290.227 1055.5,294.5C 1056.5,290.604 1056.83,285.937 1056.5,280.5C 1059.5,280.5 1062.5,280.5 1065.5,280.5C 1065.5,294.5 1065.5,308.5 1065.5,322.5 Z"/></g>
<g><path style="opacity:1" fill="#feded9" d="M 1065.5,322.5 C 1065.5,308.5 1065.5,294.5 1065.5,280.5C 1062.5,280.5 1059.5,280.5 1056.5,280.5C 1056.83,285.937 1056.5,290.604 1055.5,294.5C 1055.5,289.5 1055.5,284.5 1055.5,279.5C 1059.17,279.5 1062.83,279.5 1066.5,279.5C 1066.83,294.01 1066.5,308.343 1065.5,322.5 Z"/></g>
<g><path style="opacity:1" fill="#fbbeb4" d="M 1257.5,280.5 C 1254.17,280.5 1250.83,280.5 1247.5,280.5C 1247.67,285.511 1247.5,290.511 1247,295.5C 1246.28,294.956 1245.78,294.289 1245.5,293.5C 1246.49,289.03 1246.82,284.363 1246.5,279.5C 1250.37,279.185 1254.04,279.518 1257.5,280.5 Z"/></g>
<g><path style="opacity:1" fill="#fffcfc" d="M 1257.5,280.5 C 1257.5,294.5 1257.5,308.5 1257.5,322.5C 1254.81,322.664 1252.15,322.497 1249.5,322C 1248.3,321.097 1247.47,319.931 1247,318.5C 1243.34,322.367 1238.84,323.534 1233.5,322C 1227.94,315.861 1226.1,308.694 1228,300.5C 1231.16,291.465 1237,289.132 1245.5,293.5C 1245.78,294.289 1246.28,294.956 1247,295.5C 1247.5,290.511 1247.67,285.511 1247.5,280.5C 1250.83,280.5 1254.17,280.5 1257.5,280.5 Z"/></g>
<g><path style="opacity:1" fill="#fffafa" d="M 600.5,296.5 C 594.642,296.822 588.975,296.489 583.5,295.5C 589.454,276.781 595.12,277.115 600.5,296.5 Z"/></g>
<g><path style="opacity:1" fill="#fffdfc" d="M 718.5,307.5 C 718.783,308.289 719.283,308.956 720,309.5C 720.5,300.506 720.666,291.506 720.5,282.5C 723.5,282.5 726.5,282.5 729.5,282.5C 729.5,295.833 729.5,309.167 729.5,322.5C 724.821,322.666 720.155,322.499 715.5,322C 710.772,314.044 706.439,305.877 702.5,297.5C 702.013,296.527 701.513,295.527 701,294.5C 700.5,303.827 700.334,313.161 700.5,322.5C 697.5,322.5 694.5,322.5 691.5,322.5C 691.5,309.167 691.5,295.833 691.5,282.5C 696.544,282.173 701.544,282.506 706.5,283.5C 710.527,291.553 714.527,299.553 718.5,307.5 Z"/></g>
<g><path style="opacity:1" fill="#f9a699" d="M 720.5,282.5 C 720.666,291.506 720.5,300.506 720,309.5C 719.283,308.956 718.783,308.289 718.5,307.5C 719.167,299.167 719.833,290.833 720.5,282.5 Z"/></g>
<g><path style="opacity:1" fill="#fffbfa" d="M 925.5,313.5 C 930.305,314.487 935.305,314.821 940.5,314.5C 940.5,317.167 940.5,319.833 940.5,322.5C 931.833,322.5 923.167,322.5 914.5,322.5C 914.5,309.167 914.5,295.833 914.5,282.5C 918.167,282.5 921.833,282.5 925.5,282.5C 925.5,292.833 925.5,303.167 925.5,313.5 Z"/></g>
<g><path style="opacity:1" fill="#fffaf9" d="M 1132.5,282.5 C 1137.54,282.173 1142.54,282.506 1147.5,283.5C 1151.54,296.45 1155.87,309.283 1160.5,322C 1156.46,322.827 1152.46,322.66 1148.5,321.5C 1147.91,319.618 1147.24,317.785 1146.5,316C 1141.85,315.501 1137.18,315.334 1132.5,315.5C 1132.33,317.861 1131.99,320.194 1131.5,322.5C 1127.45,322.824 1123.45,322.491 1119.5,321.5C 1123.64,308.409 1127.97,295.409 1132.5,282.5 Z"/></g>
<g><path style="opacity:1" fill="#fff9f8" d="M 878.5,285.5 C 881.167,285.5 883.833,285.5 886.5,285.5C 886.5,287.5 886.5,289.5 886.5,291.5C 888.833,291.5 891.167,291.5 893.5,291.5C 893.5,294.167 893.5,296.833 893.5,299.5C 891.167,299.5 888.833,299.5 886.5,299.5C 886.334,304.179 886.501,308.845 887,313.5C 889.432,314.45 891.932,314.45 894.5,313.5C 894.813,316.247 894.48,318.914 893.5,321.5C 888.887,323.771 884.22,323.938 879.5,322C 877.951,320.786 876.785,319.286 876,317.5C 875.501,311.509 875.334,305.509 875.5,299.5C 874.167,299.5 872.833,299.5 871.5,299.5C 871.215,297.712 871.548,296.045 872.5,294.5C 876.242,292.689 878.242,289.689 878.5,285.5 Z"/></g>
<g><path style="opacity:1" fill="#fffaf9" d="M 744.5,291.5 C 763.683,289.843 770.516,298.176 765,316.5C 763.833,318.333 762.333,319.833 760.5,321C 742.43,325.931 734.597,319.098 737,300.5C 738.642,296.7 741.142,293.7 744.5,291.5 Z"/></g>
<g><path style="opacity:1" fill="#fff9f9" d="M 804.5,308.5 C 804.238,309.978 804.571,311.311 805.5,312.5C 806.466,310.604 806.799,308.604 806.5,306.5C 806.988,301.726 807.988,297.06 809.5,292.5C 812.768,291.513 816.102,291.18 819.5,291.5C 817.152,301.557 814.485,311.557 811.5,321.5C 807.555,322.491 803.555,322.824 799.5,322.5C 798.324,315.114 796.824,307.78 795,300.5C 793.391,307.826 791.891,315.159 790.5,322.5C 786.5,322.5 782.5,322.5 778.5,322.5C 776.126,312.088 773.46,301.754 770.5,291.5C 774.167,291.5 777.833,291.5 781.5,291.5C 782.728,297.807 783.895,304.14 785,310.5C 786.078,304.443 787.411,298.443 789,292.5C 793.066,291.536 797.233,291.203 801.5,291.5C 802.884,297.089 803.884,302.755 804.5,308.5 Z"/></g>
<g><path style="opacity:1" fill="#fffaf9" d="M 844.5,291.5 C 849.511,291.334 854.511,291.501 859.5,292C 861.848,292.346 863.681,293.513 865,295.5C 866.443,304.392 866.943,313.392 866.5,322.5C 863.753,322.813 861.086,322.48 858.5,321.5C 858,320.5 857.5,319.5 857,318.5C 851.175,324.482 845.175,324.815 839,319.5C 835.834,312.822 837.334,307.656 843.5,304C 847.418,302.844 851.418,302.344 855.5,302.5C 855.67,301.178 855.337,300.011 854.5,299C 850.647,298.413 846.98,298.746 843.5,300C 842.373,298.247 841.373,296.413 840.5,294.5C 841.624,293.141 842.958,292.141 844.5,291.5 Z"/></g>
<g><path style="opacity:1" fill="#fff9f8" d="M 952.5,291.5 C 957.511,291.334 962.511,291.501 967.5,292C 971,292.833 973.167,295 974,298.5C 974.5,306.493 974.666,314.493 974.5,322.5C 970.17,323.268 966.837,321.935 964.5,318.5C 958.306,325.008 952.139,325.008 946,318.5C 943.933,312.013 945.766,307.18 951.5,304C 955.468,303.058 959.468,302.225 963.5,301.5C 962.588,299.257 960.922,298.257 958.5,298.5C 955.822,299.175 953.156,299.842 950.5,300.5C 950.414,298.323 949.747,296.323 948.5,294.5C 949.624,293.141 950.958,292.141 952.5,291.5 Z"/></g>
<g><path style="opacity:1" fill="#fffbfa" d="M 981.5,291.5 C 984.5,291.5 987.5,291.5 990.5,291.5C 990.281,292.675 990.614,293.675 991.5,294.5C 997.833,290.5 1004.17,290.5 1010.5,294.5C 1015.07,291.609 1020.07,290.775 1025.5,292C 1027.38,293.543 1028.88,295.376 1030,297.5C 1030.5,305.827 1030.67,314.16 1030.5,322.5C 1026.83,322.5 1023.17,322.5 1019.5,322.5C 1019.67,315.492 1019.5,308.492 1019,301.5C 1016.16,298.629 1013.83,298.963 1012,302.5C 1011.5,309.158 1011.33,315.825 1011.5,322.5C 1007.83,322.5 1004.17,322.5 1000.5,322.5C 1000.67,315.492 1000.5,308.492 1000,301.5C 997.394,298.892 995.061,299.225 993,302.5C 992.5,309.158 992.334,315.825 992.5,322.5C 988.833,322.5 985.167,322.5 981.5,322.5C 981.5,312.167 981.5,301.833 981.5,291.5 Z"/></g>
<g><path style="opacity:1" fill="#fff9f8" d="M 1079.5,291.5 C 1084.51,291.334 1089.51,291.501 1094.5,292C 1098,292.833 1100.17,295 1101,298.5C 1101.5,306.493 1101.67,314.493 1101.5,322.5C 1097.17,323.268 1093.84,321.935 1091.5,318.5C 1085.31,325.008 1079.14,325.008 1073,318.5C 1070.93,312.013 1072.77,307.18 1078.5,304C 1082.47,303.058 1086.47,302.225 1090.5,301.5C 1089.59,299.257 1087.92,298.257 1085.5,298.5C 1082.82,299.175 1080.16,299.842 1077.5,300.5C 1077.41,298.323 1076.75,296.323 1075.5,294.5C 1076.62,293.141 1077.96,292.141 1079.5,291.5 Z"/></g>
<g><path style="opacity:1" fill="#fffaf9" d="M 1171.5,291.5 C 1177.2,291.375 1182.87,291.708 1188.5,292.5C 1187.83,295.167 1187.17,297.833 1186.5,300.5C 1176.2,297.3 1172.04,300.966 1174,311.5C 1174.5,312.667 1175.33,313.5 1176.5,314C 1179.95,314.473 1183.28,313.973 1186.5,312.5C 1187.65,315.106 1187.82,317.773 1187,320.5C 1168.75,326.249 1160.75,319.583 1163,300.5C 1164.69,296.315 1167.52,293.315 1171.5,291.5 Z"/></g>
<g><path style="opacity:1" fill="#fffaf9" d="M 1199.5,291.5 C 1204.51,291.334 1209.51,291.501 1214.5,292C 1216.85,292.346 1218.68,293.513 1220,295.5C 1221.44,304.392 1221.94,313.392 1221.5,322.5C 1218.75,322.813 1216.09,322.48 1213.5,321.5C 1213,320.5 1212.5,319.5 1212,318.5C 1206.18,324.482 1200.18,324.815 1194,319.5C 1190.83,312.822 1192.33,307.656 1198.5,304C 1202.42,302.844 1206.42,302.344 1210.5,302.5C 1210.67,301.178 1210.34,300.011 1209.5,299C 1205.65,298.413 1201.98,298.746 1198.5,300C 1197.37,298.247 1196.37,296.413 1195.5,294.5C 1196.62,293.141 1197.96,292.141 1199.5,291.5 Z"/></g>
<g><path style="opacity:1" fill="#fffbfb" d="M 1272.5,291.5 C 1287.13,288.946 1294.13,294.946 1293.5,309.5C 1287.17,309.5 1280.83,309.5 1274.5,309.5C 1274.39,311.903 1275.39,313.736 1277.5,315C 1282.33,315.778 1287,315.278 1291.5,313.5C 1291.5,316.167 1291.5,318.833 1291.5,321.5C 1285.2,322.487 1278.86,322.653 1272.5,322C 1264.63,317.409 1261.8,310.576 1264,301.5C 1265.29,296.721 1268.12,293.388 1272.5,291.5 Z"/></g>
<g><path style="opacity:1" fill="#fffbfa" d="M 1299.5,291.5 C 1302.19,291.336 1304.85,291.503 1307.5,292C 1308.19,293.067 1308.69,294.234 1309,295.5C 1311.54,292.234 1314.87,290.9 1319,291.5C 1320.83,291.667 1322.67,291.833 1324.5,292C 1327.07,295.16 1329.74,295.16 1332.5,292C 1336.63,291.146 1340.63,291.48 1344.5,293C 1346.49,294.319 1347.65,296.152 1348,298.5C 1348.5,306.493 1348.67,314.493 1348.5,322.5C 1344.83,322.5 1341.17,322.5 1337.5,322.5C 1337.67,315.492 1337.5,308.492 1337,301.5C 1334.67,298.833 1332.33,298.833 1330,301.5C 1329.5,308.492 1329.33,315.492 1329.5,322.5C 1325.83,322.5 1322.17,322.5 1318.5,322.5C 1318.67,315.492 1318.5,308.492 1318,301.5C 1315.16,298.629 1312.83,298.963 1311,302.5C 1310.5,309.158 1310.33,315.825 1310.5,322.5C 1306.83,322.5 1303.17,322.5 1299.5,322.5C 1299.5,312.167 1299.5,301.833 1299.5,291.5 Z"/></g>
<g><path style="opacity:1" fill="#fffbfa" d="M 1351.5,292.5 C 1355.3,291.517 1359.3,291.183 1363.5,291.5C 1364.86,297.949 1366.7,304.283 1369,310.5C 1370.99,304.193 1372.83,297.859 1374.5,291.5C 1378.23,291.177 1381.89,291.511 1385.5,292.5C 1380.9,304.461 1376.4,316.461 1372,328.5C 1367.88,334.803 1362.04,337.136 1354.5,335.5C 1354.5,332.833 1354.5,330.167 1354.5,327.5C 1359.66,328.669 1362.66,326.669 1363.5,321.5C 1359.87,311.577 1355.87,301.91 1351.5,292.5 Z"/></g>
<g><path style="opacity:1" fill="#f66850" d="M 1143.5,304.5 C 1142.55,305.152 1141.38,305.486 1140,305.5C 1138.32,305.392 1137.15,304.725 1136.5,303.5C 1137.35,298.769 1138.52,294.102 1140,289.5C 1141.33,294.482 1142.5,299.482 1143.5,304.5 Z"/></g>
<g><path style="opacity:1" fill="#f9aca0" d="M 583.5,295.5 C 588.975,296.489 594.642,296.822 600.5,296.5C 594.654,297.817 588.654,297.817 582.5,296.5C 582.624,295.893 582.957,295.56 583.5,295.5 Z"/></g>
<g><path style="opacity:1" fill="#f5624a" d="M 1283.5,302.5 C 1280.3,303.036 1277.64,302.369 1275.5,300.5C 1277.01,298.559 1279.01,298.059 1281.5,299C 1282.82,299.816 1283.49,300.983 1283.5,302.5 Z"/></g>
<g><path style="opacity:1" fill="#f5614a" d="M 749.5,299.5 C 752.547,298.855 754.713,299.855 756,302.5C 756.85,306.536 756.35,310.369 754.5,314C 751.975,314.896 749.808,314.396 748,312.5C 746.978,307.871 747.478,303.538 749.5,299.5 Z"/></g>
<g><path style="opacity:1" fill="#f5634b" d="M 1049.5,299.5 C 1056.11,300.258 1058.28,303.925 1056,310.5C 1055.31,314.19 1053.14,315.357 1049.5,314C 1046.87,309.168 1046.87,304.334 1049.5,299.5 Z"/></g>
<g><path style="opacity:1" fill="#f5624a" d="M 1241.5,299.5 C 1246.21,299.726 1248.21,302.226 1247.5,307C 1248.17,313.268 1245.67,315.434 1240,313.5C 1237.56,308.374 1238.06,303.708 1241.5,299.5 Z"/></g>
<g><path style="opacity:1" fill="#f89686" d="M 1275.5,300.5 C 1277.64,302.369 1280.3,303.036 1283.5,302.5C 1280.71,303.477 1277.71,303.81 1274.5,303.5C 1274.26,302.209 1274.6,301.209 1275.5,300.5 Z"/></g>
<g><path style="opacity:1" fill="#fbbdb3" d="M 702.5,297.5 C 701.833,305.833 701.167,314.167 700.5,322.5C 700.334,313.161 700.5,303.827 701,294.5C 701.513,295.527 702.013,296.527 702.5,297.5 Z"/></g>
<g><path style="opacity:1" fill="#f9a395" d="M 1136.5,303.5 C 1137.15,304.725 1138.32,305.392 1140,305.5C 1141.38,305.486 1142.55,305.152 1143.5,304.5C 1144.04,304.56 1144.38,304.893 1144.5,305.5C 1141.57,306.484 1138.57,306.817 1135.5,306.5C 1135.26,305.209 1135.6,304.209 1136.5,303.5 Z"/></g>
<g><path style="opacity:1" fill="#f5614a" d="M 850.5,309.5 C 852.167,309.5 853.833,309.5 855.5,309.5C 855.5,310.5 855.5,311.5 855.5,312.5C 852.951,316.411 850.618,316.411 848.5,312.5C 848.453,310.962 849.12,309.962 850.5,309.5 Z"/></g>
<g><path style="opacity:1" fill="#fbb0a3" d="M 850.5,309.5 C 852.265,308.539 854.265,308.205 856.5,308.5C 856.768,310.099 856.434,311.432 855.5,312.5C 855.5,311.5 855.5,310.5 855.5,309.5C 853.833,309.5 852.167,309.5 850.5,309.5 Z"/></g>
<g><path style="opacity:1" fill="#f66750" d="M 958.5,308.5 C 960.167,308.5 961.833,308.5 963.5,308.5C 964.329,313.501 962.329,315.668 957.5,315C 956.144,312.586 956.478,310.419 958.5,308.5 Z"/></g>
<g><path style="opacity:1" fill="#f66750" d="M 1085.5,308.5 C 1087.17,308.5 1088.83,308.5 1090.5,308.5C 1091.33,313.501 1089.33,315.668 1084.5,315C 1083.14,312.586 1083.48,310.419 1085.5,308.5 Z"/></g>
<g><path style="opacity:1" fill="#f5614a" d="M 1205.5,309.5 C 1207.17,309.5 1208.83,309.5 1210.5,309.5C 1210.5,310.5 1210.5,311.5 1210.5,312.5C 1207.95,316.411 1205.62,316.411 1203.5,312.5C 1203.45,310.962 1204.12,309.962 1205.5,309.5 Z"/></g>
<g><path style="opacity:1" fill="#fbb0a3" d="M 1205.5,309.5 C 1207.26,308.539 1209.26,308.205 1211.5,308.5C 1211.77,310.099 1211.43,311.432 1210.5,312.5C 1210.5,311.5 1210.5,310.5 1210.5,309.5C 1208.83,309.5 1207.17,309.5 1205.5,309.5 Z"/></g>
<g><path style="opacity:1" fill="#fcbcb1" d="M 806.5,306.5 C 806.799,308.604 806.466,310.604 805.5,312.5C 804.571,311.311 804.238,309.978 804.5,308.5C 805.167,307.833 805.833,307.167 806.5,306.5 Z"/></g>
<g><path style="opacity:1" fill="#fbbcb1" d="M 925.5,313.5 C 930.833,313.5 936.167,313.5 941.5,313.5C 941.81,316.713 941.477,319.713 940.5,322.5C 940.5,319.833 940.5,317.167 940.5,314.5C 935.305,314.821 930.305,314.487 925.5,313.5 Z"/></g>
<g><path style="opacity:1" fill="#fbc1b7" d="M 427.5,429.5 C 427.5,395.833 427.5,362.167 427.5,328.5C 422.833,328.5 418.167,328.5 413.5,328.5C 413.5,362.167 413.5,395.833 413.5,429.5C 412.502,395.671 412.168,361.671 412.5,327.5C 417.833,327.5 423.167,327.5 428.5,327.5C 428.832,361.671 428.498,395.671 427.5,429.5 Z"/></g>
<g><path style="opacity:1" fill="#fefffe" d="M 427.5,429.5 C 422.833,429.5 418.167,429.5 413.5,429.5C 413.5,395.833 413.5,362.167 413.5,328.5C 418.167,328.5 422.833,328.5 427.5,328.5C 427.5,362.167 427.5,395.833 427.5,429.5 Z"/></g>
<g><path style="opacity:1" fill="#fffdfd" d="M 636.5,328.5 C 648.326,326.833 653.826,331.833 653,343.5C 652.31,346.196 650.81,348.363 648.5,350C 610.666,373.083 572.999,396.416 535.5,420C 503.168,420.5 470.835,420.667 438.5,420.5C 438.333,394.165 438.5,367.831 439,341.5C 439.75,340.874 440.584,340.374 441.5,340C 448.753,338.443 456.086,338.11 463.5,339C 470.162,342.832 477.162,345.832 484.5,348C 510.167,348.333 535.833,348.667 561.5,349C 566.434,351.665 567.601,355.498 565,360.5C 563.581,361.46 562.081,362.293 560.5,363C 546.5,363.333 532.5,363.667 518.5,364C 514.915,366.528 514.582,369.528 517.5,373C 532.5,373.667 547.5,373.667 562.5,373C 587.695,358.909 612.362,344.075 636.5,328.5 Z"/></g>
<g><path style="opacity:1" fill="#eb6953" d="M 1921.5,399.5 C 1924.36,399.055 1926.86,399.722 1929,401.5C 1938.3,417.935 1947.47,434.435 1956.5,451C 1956.1,452.473 1955.43,453.806 1954.5,455C 1943.02,461.005 1931.68,467.171 1920.5,473.5C 1918.62,473.124 1917.12,472.124 1916,470.5C 1908.92,457.338 1901.59,444.338 1894,431.5C 1891.93,428.04 1890.43,424.374 1889.5,420.5C 1889.57,419.228 1889.9,418.062 1890.5,417C 1901,411.303 1911.33,405.47 1921.5,399.5 Z"/></g>
<g><path style="opacity:1" fill="#eb6953" d="M 1793.5,401.5 C 1800.28,406.45 1806.28,412.284 1811.5,419C 1806.67,425.167 1801.17,430.667 1795,435.5C 1788.56,430.551 1782.73,425.051 1777.5,419C 1782.66,413.009 1787.99,407.175 1793.5,401.5 Z"/></g>
<g><path style="opacity:1" fill="#f45e46" d="M 1921.5,410.5 C 1922.38,410.369 1923.04,410.702 1923.5,411.5C 1930.25,423.996 1937.25,436.329 1944.5,448.5C 1937.17,452.833 1929.83,457.167 1922.5,461.5C 1915.38,448.544 1908.04,435.71 1900.5,423C 1907.56,418.807 1914.56,414.641 1921.5,410.5 Z"/></g>
<g><path style="opacity:1" fill="#cf452d" d="M -0.5,435.5 C 12.4072,440.953 24.7405,447.453 36.5,455C 48.5436,465.379 60.8769,475.379 73.5,485C 86.1627,492.829 99.8294,498.162 114.5,501C 122,502.011 129.333,501.345 136.5,499C 153.167,488.333 169.833,477.667 186.5,467C 192.968,464.067 199.634,461.733 206.5,460C 222.51,459.564 238.51,459.898 254.5,461C 270.433,463.801 284.766,470.135 297.5,480C 313.042,495.281 326.542,512.114 338,530.5C 351.8,551.401 359.3,574.401 360.5,599.5C 242.5,599.5 124.5,599.5 6.5,599.5C 5.13754,592.079 2.80421,585.079 -0.5,578.5C -0.5,530.833 -0.5,483.167 -0.5,435.5 Z"/></g>
<g><path style="opacity:1" fill="#eb6953" d="M 1700.5,442.5 C 1703.16,442.162 1705.49,442.829 1707.5,444.5C 1708.42,447.758 1708.75,451.091 1708.5,454.5C 1712.58,454.043 1716.42,454.71 1720,456.5C 1720.64,464.663 1716.81,467.663 1708.5,465.5C 1708.96,469.584 1708.29,473.417 1706.5,477C 1703.65,477.944 1701.15,477.444 1699,475.5C 1698.5,471.848 1698.33,468.182 1698.5,464.5C 1694.82,464.665 1691.15,464.499 1687.5,464C 1684.46,460.195 1685.13,457.195 1689.5,455C 1692.48,454.502 1695.48,454.335 1698.5,454.5C 1697.99,450.187 1698.66,446.187 1700.5,442.5 Z"/></g>
<g><path style="opacity:1" fill="#eb6953" d="M 1585.5,459.5 C 1589.68,458.846 1592.52,460.512 1594,464.5C 1596.17,460.74 1599.17,459.74 1603,461.5C 1603.54,465.169 1602.04,467.836 1598.5,469.5C 1599.86,471.028 1601.03,472.695 1602,474.5C 1602.68,475.784 1602.52,476.951 1601.5,478C 1597.32,479.165 1594.48,477.665 1593,473.5C 1590.83,477.26 1587.83,478.26 1584,476.5C 1583.33,475.167 1583.33,473.833 1584,472.5C 1585.63,471.274 1587.13,469.941 1588.5,468.5C 1587.33,466.833 1586.17,465.167 1585,463.5C 1584.42,462.072 1584.59,460.738 1585.5,459.5 Z"/></g>
<g><path style="opacity:1" fill="#eb6953" d="M 1822.5,491.5 C 1824.65,491.372 1826.65,491.872 1828.5,493C 1843,504.167 1857.5,515.333 1872,526.5C 1872.67,528.167 1872.67,529.833 1872,531.5C 1864.29,541.757 1856.45,551.924 1848.5,562C 1845.48,562.164 1842.81,561.164 1840.5,559C 1826.36,548.518 1812.52,537.684 1799,526.5C 1798.33,524.833 1798.33,523.167 1799,521.5C 1806.62,511.211 1814.46,501.211 1822.5,491.5 Z"/></g>
<g><path style="opacity:1" fill="#eb6953" d="M 1536.5,494.5 C 1549.62,498.818 1562.46,503.818 1575,509.5C 1575.32,511.553 1574.99,513.553 1574,515.5C 1571.42,522.313 1568.59,528.979 1565.5,535.5C 1564.23,536.428 1562.9,536.595 1561.5,536C 1550.05,531.777 1538.72,527.277 1527.5,522.5C 1526.36,520.579 1526.19,518.579 1527,516.5C 1529.92,508.994 1533.09,501.661 1536.5,494.5 Z"/></g>
<g><path style="opacity:1" fill="#f45e46" d="M 1539.5,502.5 C 1549.04,505.605 1558.38,509.271 1567.5,513.5C 1565.59,518.391 1563.59,523.224 1561.5,528C 1552.61,525.756 1543.94,522.589 1535.5,518.5C 1535.17,517.833 1534.83,517.167 1534.5,516.5C 1536.18,511.817 1537.84,507.151 1539.5,502.5 Z"/></g>
<g><path style="opacity:1" fill="#f45e46" d="M 1824.5,503.5 C 1837.05,511.713 1849.05,520.713 1860.5,530.5C 1855.71,536.577 1851.05,542.744 1846.5,549C 1845.5,549.667 1844.5,549.667 1843.5,549C 1832.36,540.691 1821.36,532.191 1810.5,523.5C 1815.18,516.804 1819.84,510.138 1824.5,503.5 Z"/></g>
<g><path style="opacity:1" fill="#eb6953" d="M 1737.5,516.5 C 1744.75,520.743 1750.75,526.41 1755.5,533.5C 1750.17,539.5 1744.5,545.167 1738.5,550.5C 1732.5,545.167 1726.83,539.5 1721.5,533.5C 1726.85,527.813 1732.19,522.146 1737.5,516.5 Z"/></g>
<g><path style="opacity:1" fill="#eb6953" d="M 1638.5,526.5 C 1643.87,526.523 1649.21,527.023 1654.5,528C 1655.06,528.725 1655.39,529.558 1655.5,530.5C 1654.92,535.057 1654.25,539.557 1653.5,544C 1648.2,543.808 1642.87,543.641 1637.5,543.5C 1637.37,537.797 1637.71,532.13 1638.5,526.5 Z"/></g>
<g><path style="opacity:1" fill="#eb6953" d="M 1924.5,543.5 C 1927.32,543.081 1929.49,544.081 1931,546.5C 1931.5,549.817 1931.67,553.15 1931.5,556.5C 1934.85,556.335 1938.18,556.502 1941.5,557C 1945.48,560.048 1945.48,563.048 1941.5,566C 1938.18,566.498 1934.85,566.665 1931.5,566.5C 1931.72,570.059 1931.38,573.559 1930.5,577C 1927.5,580.381 1924.67,580.214 1922,576.5C 1921.5,573.183 1921.33,569.85 1921.5,566.5C 1917.82,566.665 1914.15,566.499 1910.5,566C 1907.59,562.626 1907.93,559.626 1911.5,557C 1914.82,556.502 1918.15,556.335 1921.5,556.5C 1920.74,551.607 1921.74,547.274 1924.5,543.5 Z"/></g>
<g><path style="opacity:1" fill="#eb6953" d="M 1468.5,552.5 C 1474.09,552.193 1479.59,552.527 1485,553.5C 1485.37,559.175 1485.2,564.841 1484.5,570.5C 1479.2,569.725 1473.87,569.392 1468.5,569.5C 1468.5,563.833 1468.5,558.167 1468.5,552.5 Z"/></g>
<g><path style="opacity:1" fill="#eb6953" d="M 1598.5,569.5 C 1602.15,569.622 1604.98,571.288 1607,574.5C 1609.55,570.678 1612.55,570.012 1616,572.5C 1616.67,573.5 1616.67,574.5 1616,575.5C 1611.16,577.33 1610.49,579.997 1614,583.5C 1615.58,588.1 1614.08,589.934 1609.5,589C 1608.69,587.028 1607.36,585.528 1605.5,584.5C 1603.5,585.833 1601.5,587.167 1599.5,588.5C 1596.91,587.278 1596.08,585.278 1597,582.5C 1598.35,580.981 1599.85,579.648 1601.5,578.5C 1600.52,577.019 1599.35,575.685 1598,574.5C 1597.36,572.735 1597.53,571.068 1598.5,569.5 Z"/></g>
<g><path style="opacity:1" fill="#f35c44" d="M -0.5,578.5 C 2.80421,585.079 5.13754,592.079 6.5,599.5C 4.16667,599.5 1.83333,599.5 -0.5,599.5C -0.5,592.5 -0.5,585.5 -0.5,578.5 Z"/></g>
<g><path style="opacity:1" fill="#eb6852" d="M 1704.5,599.5 C 1691.5,599.5 1678.5,599.5 1665.5,599.5C 1671.27,594.23 1676.94,588.73 1682.5,583C 1683.5,582.833 1684.5,582.667 1685.5,582.5C 1692.71,587.035 1699.04,592.702 1704.5,599.5 Z"/></g>
<g><path style="opacity:1" fill="#eb6953" d="M 1565.5,599.5 C 1563.17,599.5 1560.83,599.5 1558.5,599.5C 1558.5,596.5 1558.5,593.5 1558.5,590.5C 1548.52,591.296 1538.52,591.629 1528.5,591.5C 1528.5,594.167 1528.5,596.833 1528.5,599.5C 1526.5,599.5 1524.5,599.5 1522.5,599.5C 1522.2,594.901 1522.53,590.401 1523.5,586C 1537.39,584.621 1551.22,584.454 1565,585.5C 1565.5,590.155 1565.67,594.821 1565.5,599.5 Z"/></g>
<g><path style="opacity:1" fill="#f45e46" d="M 1558.5,599.5 C 1548.5,599.5 1538.5,599.5 1528.5,599.5C 1528.5,596.833 1528.5,594.167 1528.5,591.5C 1538.52,591.629 1548.52,591.296 1558.5,590.5C 1558.5,593.5 1558.5,596.5 1558.5,599.5 Z"/></g>
</svg>
